Coordinates
version=1
nRows=17
nColumns=23
inDegrees=yes

Units are S.I. units (second, meters, Newtons, ...)
If the header above contains a line with 'inDegrees', this indicates whether rotational values are in degrees (yes) or radians (no).

endheader
time	pelvis_tilt	pelvis_list	pelvis_rotation	pelvis_tx	pelvis_ty	pelvis_tz	hip_flexion_r	hip_adduction_r	hip_rotation_r	knee_angle_r	knee_angle_r_beta	ankle_angle_r	subtalar_angle_r	mtp_angle_r	hip_flexion_l	hip_adduction_l	hip_rotation_l	knee_angle_l	knee_angle_l_beta	ankle_angle_l	subtalar_angle_l	mtp_angle_l
     22.50000000	     -9.10981810	     13.18603163	      8.24613381	      1.88557142	      0.92746007	      0.95195965	     32.02247212	    -21.84305422	      2.20985621	    102.56206743	      1.79004576	    -10.40232944	    -25.17948719	      0.00000000	     21.83526869	     18.37940166	     -3.32593128	     39.22757779	      0.68465039	     17.81204779	    -17.45812486	      0.00000000
     22.50666667	     -9.37732679	     13.04724974	      7.38054624	      1.88362694	      0.92818165	      0.95329586	     35.00401634	    -20.63324022	      4.25898329	    102.88770660	      1.79572924	     -9.75786143	    -23.92954196	      0.00000000	     21.01029234	     17.82249219	     -3.90559079	     38.76153828	      0.67651647	     18.24846953	    -16.69638818	      0.00000000
     22.51333333	     -9.45607541	     12.72237590	      6.63037564	      1.88199621	      0.92972363	      0.95455087	     37.44552606	    -19.29942965	      5.72351030	    102.75857936	      1.79347554	     -9.15859023	    -22.72330732	      0.00000000	     19.83989639	     17.15367412	     -4.18413092	     38.09663124	      0.66491165	     18.50657027	    -16.20818418	      0.00000000
     22.52000000	     -9.61239847	     12.23003504	      6.46078697	      1.88078461	      0.93183691	      0.95479663	     39.48712295	    -18.36740834	      6.24299960	    102.16515498	      1.78311834	     -8.84412914	    -22.21016232	      0.00000000	     18.53826004	     16.63220496	     -3.63877347	     37.26449808	      0.65038819	     18.79864815	    -15.81583622	      0.00000000
     22.52666667	     -9.65071714	     11.82958311	      5.29672079	      1.87947838	      0.93405665	      0.95689581	     41.67790091	    -16.58536621	      7.58815805	    101.40769578	      1.76989818	     -8.00119486	    -20.81534752	      0.00000000	     17.24271914	     15.72448301	     -4.43761661	     36.27010939	      0.63303283	     18.42031192	    -15.25968189	      0.00000000
     22.53333333	     -9.88203876	     11.28714224	      4.73181134	      1.87862566	      0.93661629	      0.95805941	     43.60790964	    -15.25893448	      8.04283943	    100.23144042	      1.74936865	     -7.42208894	    -20.13070017	      0.00000000	     15.97154467	     14.95865419	     -4.51147277	     35.16183958	      0.61368987	     18.15797009	    -14.61303507	      0.00000000
     22.54000000	    -10.14631548	     10.66815932	      4.22125887	      1.87807989	      0.93948093	      0.95922220	     45.34932194	    -13.97670963	      8.16391362	     98.72853673	      1.72313803	     -6.84239890	    -19.67097681	      0.00000000	     14.66622631	     14.15329433	     -4.48211921	     33.92920502	      0.59217634	     17.73815627	    -14.01573071	      0.00000000
     22.54666667	     -9.84682003	      9.62290639	      3.68923805	      1.87825800	      0.94388561	      0.96058896	     46.03036949	    -12.35434566	      7.65559476	     96.67733655	      1.68733783	     -6.38505446	    -19.66099491	      0.00000000	     12.63773520	     12.83018219	     -4.44566217	     32.49892707	      0.56721328	     17.11118267	    -13.23595447	      0.00000000
     22.55333333	     -9.90603170	      8.66058940	      3.26285754	      1.87856863	      0.94791446	      0.96180315	     46.98425950	    -10.97419420	      7.03231430	     94.41940448	      1.64792949	     -5.90515984	    -19.72937652	      0.00000000	     10.95870155	     11.68046970	     -4.31211099	     30.96730995	      0.54048152	     16.18585952	    -12.66398779	      0.00000000
     22.56000000	     -9.98939772	      7.63425812	      2.87841861	      1.87917847	      0.95217947	      0.96298294	     47.75270769	     -9.65251683	      6.18194339	     91.86125292	      1.60328132	     -5.43765444	    -19.94621270	      0.00000000	      9.26298946	     10.47924008	     -4.16002588	     29.32654336	      0.51184474	     15.03056122	    -12.10377973	      0.00000000
     22.56666667	    -10.07555416	      6.52875594	      2.52509047	      1.88009029	      0.95665388	      0.96413594	     48.31358059	     -8.37467016	      5.10889592	     89.00906904	      1.55350132	     -4.98358490	    -20.24650715	      0.00000000	      7.54980319	      9.19478548	     -4.03454952	     27.61666731	      0.48200177	     13.65687759	    -11.50507764	      0.00000000
     22.57333333	    -10.20915953	      5.42677487	      2.15750036	      1.88122625	      0.96113202	      0.96529971	     48.75863193	     -7.15889255	      3.94586764	     85.91082619	      1.49942678	     -4.54848683	    -20.61042826	      0.00000000	      5.88349188	      7.91589868	     -3.99504871	     25.85670694	      0.45128467	     12.04740774	    -10.89442321	      0.00000000
     22.58000000	    -10.38513130	      4.35819470	      1.76951624	      1.88252313	      0.96556020	      0.96647614	     49.09520611	     -6.01834439	      2.73295964	     82.59198077	      1.44150200	     -4.11487230	    -20.93402476	      0.00000000	      4.28105662	      6.66832377	     -4.07061256	     24.09448059	      0.42052802	     10.23043418	    -10.25186613	      0.00000000
     22.58666667	    -10.56211679	      3.29853027	      1.40507981	      1.88403010	      0.96994686	      0.96759015	     49.25640473	     -4.97451192	      1.41846339	     79.05072528	      1.37969543	     -3.68066217	    -21.12499265	      0.00000000	      2.71594500	      5.43110657	     -4.21197021	     22.38065333	      0.39061609	      8.25478305	     -9.55908940	      0.00000000
     22.59333333	    -10.77544534	      2.35216173	      0.97959068	      1.88560908	      0.97413032	      0.96874047	     49.33250637	     -4.00667706	      0.18454504	     75.35098303	      1.31512275	     -3.26472861	    -21.16205337	      0.00000000	      1.24519054	      4.31566908	     -4.51283260	     20.74394709	      0.36205018	      6.10824696	     -8.86089374	      0.00000000
     22.60000000	    -10.95958217	      1.48329882	      0.59991626	      1.88731658	      0.97818205	      0.96979971	     49.22237589	     -3.18629122	     -1.09036019	     71.49461763	      1.24781648	     -2.87716542	    -20.97232377	      0.00000000	     -0.17876395	      3.28110218	     -4.86394106	     19.24774097	      0.33593645	      3.83507629	     -8.17468525	      0.00000000
     22.60666667	    -12.00023916	      1.32511899	      0.11637566	      1.88851233	      0.98034385	      0.97105842	     50.16635678	     -2.79126775	     -1.68435257	     67.83238656	      1.18389849	     -2.41289320	    -20.40726257	      0.00000000	     -0.42129009	      3.01341999	     -5.34228424	     18.25305095	      0.31857584	      1.89654758	     -7.34395161	      0.00000000
